# xmcd
#
# Track frame offsets:
#	150
#	16480
#	33515
#	47777
#	65570
#	85310
#	99900
#	113667
#	124797
#	142847
#	156185
#	177495
#	197370
#	219055
#	237430
#	261400
#	279642
#
# Disc length: 3816
#
# Revision: 1
# Processed by: cddbd v1.5.1PL0 Copyright (c) Steve Scherf et al.
# Submitted via: VisiTrax 2.9.5.180 - For more info visit www.synapsa.com
# Normalized: r0:DSETVAR1
#
DISCID=eb0ee611
DTITLE=Various Artist - CDX 145B September 1996
DYEAR=1996
DGENRE=
TTITLE0=Steve Azar - Nights like this
TTITLE1=LeAnn Rimes - One way ticket (because I can)
TTITLE2=Rick Trevino - Running out of reasons to run
TTITLE3=Baillie and The Boys - Some kind of luck
TTITLE4=Garth Brooks - That ol' wind
TTITLE5=Bryan White - That's another song
TTITLE6=Jeff Wood - You just get one
TTITLE7=Midsouth - The defination of love
TTITLE8=Jennifer Raynor - Rodeo queen
TTITLE9=Mary Chapin Carpenter - Let me into your heart
TTITLE10=Martina McBride - Swingin' doors
TTITLE11=Mindy McCready - Guys do it all the time
TTITLE12=Tony Toliver - Bettin' forever on you
TTITLE13=Ricochet - Daddy's money
TTITLE14=Jeff Carson - Betty's takin' judo
TTITLE15=Baker and Mers - A little bit of honey
TTITLE16=Ricochet - The star spangled banner
EXTD=
EXTT0=
EXTT1=
EXTT2=
EXTT3=
EXTT4=
EXTT5=
EXTT6=
EXTT7=
EXTT8=
EXTT9=
EXTT10=
EXTT11=
EXTT12=
EXTT13=
EXTT14=
EXTT15=
EXTT16=
PLAYORDER=
